<svg width="63" height="63" viewBox="0 0 63 63" fill="none" xmlns="http://www.w3.org/2000/svg">
<g filter="url(#filter0_d_109_1133)">
<circle cx="31.5" cy="27.5" r="27.5" fill="white"/>
<circle cx="31.5" cy="27.5" r="27.5" fill="black" fill-opacity="0.2"/>
<circle cx="31.5" cy="27.5" r="24" stroke="black" stroke-width="7"/>
</g>
<path d="M49 31.5C49.8284 31.5 50.5 30.8284 50.5 30C50.5 29.1716 49.8284 28.5 49 28.5V31.5ZM31 31.5H49V28.5H31V31.5Z" fill="black"/>
<path d="M34.7303 13.0701C34.7695 12.2426 34.1304 11.5404 33.3029 11.5016C32.4754 11.4628 31.7728 12.1022 31.7336 12.9297L34.7303 13.0701ZM33.9254 30.061L34.7303 13.0701L31.7336 12.9297L30.9287 29.9205L33.9254 30.061Z" fill="black"/>
<defs>
<filter id="filter0_d_109_1133" x="0" y="0" width="63" height="63" filterUnits="userSpaceOnUse" color-interpolation-filters="sRGB">
<feFlood flood-opacity="0" result="BackgroundImageFix"/>
<feColorMatrix in="SourceAlpha" type="matrix" values="0 0 0 0 0 0 0 0 0 0 0 0 0 0 0 0 0 0 127 0" result="hardAlpha"/>
<feOffset dy="4"/>
<feGaussianBlur stdDeviation="2"/>
<feComposite in2="hardAlpha" operator="out"/>
<feColorMatrix type="matrix" values="0 0 0 0 0 0 0 0 0 0 0 0 0 0 0 0 0 0 0.25 0"/>
<feBlend mode="normal" in2="BackgroundImageFix" result="effect1_dropShadow_109_1133"/>
<feBlend mode="normal" in="SourceGraphic" in2="effect1_dropShadow_109_1133" result="shape"/>
</filter>
</defs>
</svg>
