<?xml version="1.0" standalone="no"?>
<!DOCTYPE svg PUBLIC "-//W3C//DTD SVG 20010904//EN"
 "http://www.w3.org/TR/2001/REC-SVG-20010904/DTD/svg10.dtd">
<svg version="1.0" xmlns="http://www.w3.org/2000/svg"
 width="150.000000pt" height="150.000000pt" viewBox="0 0 150.000000 150.000000"
 preserveAspectRatio="xMidYMid meet">

<g transform="translate(0.000000,150.000000) scale(0.100000,-0.100000)"
fill="#000000" stroke="none">
<path d="M728 946 c-251 -94 -462 -176 -468 -182 -30 -30 -6 -47 119 -88 l125
-41 45 -135 c26 -75 50 -141 54 -148 15 -23 39 -12 111 52 l71 63 123 -88 c68
-49 129 -89 136 -89 38 0 46 27 126 413 45 214 79 395 76 403 -3 8 -18 14 -33
13 -15 -1 -234 -78 -485 -173z m342 26 c0 -5 -96 -95 -214 -201 l-214 -193 -7
-65 c-4 -35 -9 -63 -11 -60 -6 6 -66 209 -62 212 14 12 495 315 501 315 4 0 7
-4 7 -8z"/>
</g>
</svg>
