<svg id="Слой_1" data-name="Слой 1" xmlns="http://www.w3.org/2000/svg" viewBox="0 0 18.21 10.62"><title>vk</title><path d="M12.77,17.24a.6.6,0,0,0,.65-.69c0-1.45.54-2.24,1.56-1.22s1.37,1.91,2.74,1.91h2.43c.61,0,.85-.19.85-.5,0-.66-1.08-1.81-2-2.66-1.28-1.19-1.34-1.22-.24-2.65,1.37-1.77,3.16-4,1.57-4h-3c-.58,0-.63.33-.83.83-.76,1.78-2.19,4.08-2.74,3.73s-.31-1.82-.27-4c0-.57,0-1-.86-1.17a6.11,6.11,0,0,0-1.37-.15c-1.73,0-2.92.72-2.24.84,1.19.23,1.07,2.81.8,3.92C9.32,13.33,7.5,9.85,6.74,8.12c-.18-.41-.23-.74-.89-.74H3.38c-.37,0-.59.13-.59.4a26.1,26.1,0,0,0,4.39,7.41C9.27,17.45,11.34,17.24,12.77,17.24Z" transform="translate(-2.79 -6.63)"/></svg>